<?xml version="1.0" encoding="UTF-8" standalone="no"?>
<!-- Created with Inkscape (http://www.inkscape.org/) -->

<svg
   version="1.1"
   id="svg2"
   width="173.69333"
   height="297.61334"
   viewBox="0 0 173.69333 297.61334"
   sodipodi:docname="OHSU-RGB-4C-POS.eps"
   xmlns:inkscape="http://www.inkscape.org/namespaces/inkscape"
   xmlns:sodipodi="http://sodipodi.sourceforge.net/DTD/sodipodi-0.dtd"
   xmlns="http://www.w3.org/2000/svg"
   xmlns:svg="http://www.w3.org/2000/svg">
  <defs
     id="defs6" />
  <sodipodi:namedview
     id="namedview4"
     pagecolor="#ffffff"
     bordercolor="#000000"
     borderopacity="0.25"
     inkscape:showpageshadow="2"
     inkscape:pageopacity="0.0"
     inkscape:pagecheckerboard="0"
     inkscape:deskcolor="#d1d1d1" />
  <g
     id="g8"
     inkscape:groupmode="layer"
     inkscape:label="ink_ext_XXXXXX"
     transform="matrix(1.3333333,0,0,-1.3333333,0,297.61333)">
    <g
       id="g10"
       transform="scale(0.1)">
      <path
         d="m 778.332,427.344 c -247.359,0 -486.141,-26.703 -679.0312,-70.91 L 107.68,332.57 c 187.531,33.813 407.09,55.032 640.84,47.391 152.992,-5.027 298.89,-24.969 433.26,-47.391 l 25.25,71.34 c -133.52,17.473 -277.897,23.434 -428.698,23.434"
         style="fill:#585e60;fill-opacity:1;fill-rule:nonzero;stroke:none"
         id="path12" />
      <path
         d="m 325.93,1763.21 c 553.07,339.4 501.41,379.15 480.57,409.75 l 1.547,1.05 c 40.351,-34.41 140.992,-180.69 -311.34,-461.92 -411,-255.56 -437.4375,-414.52 -254.117,-578.72 46.406,-41.57 61.258,-47.32 137.609,-93.48 L 321.18,963.258 c -89.461,56.582 -678.512,366.352 4.75,799.952"
         style="fill:#ffc938;fill-opacity:1;fill-rule:nonzero;stroke:none"
         id="path14" />
      <path
         d="m 728.844,1249.26 c -541.418,339.65 -493.938,372.79 -473.399,402.9 l -1.531,1.07 C 214.145,1619.39 119.703,1475.27 565.336,1198.7 994.156,932.547 949.023,764.895 790.945,515.805 c 0.141,-1.668 -2.082,-2.969 -1.968,-4.297 216.323,147.269 384.733,458.699 -60.133,737.752"
         style="fill:#5d97c9;fill-opacity:1;fill-rule:nonzero;stroke:none"
         id="path16" />
      <path
         d="m 418.836,1159.56 v 0 c -67.609,151.37 -40.231,244.41 272.519,437.14 482.895,297.7 198.668,571.98 121.821,634.4 l 1.488,0.95 c 89.66,-50.28 460.066,-374.86 -44.187,-691.08 C 539.156,1395.73 397.824,1310.83 418.836,1159.56"
         style="fill:#ffc938;fill-opacity:1;fill-rule:nonzero;stroke:none"
         id="path18" />
      <path
         d="M 846.777,888 C 568.93,716.641 465.43,578.617 546.5,468.148 522.727,620.379 738.25,688.961 959.719,829.199 1621.12,1247.98 1144.7,1628.01 1018.91,1690.63 l -2.09,-1.18 C 1124.9,1611.46 1463.11,1269.66 846.777,888"
         style="fill:#56b146;fill-opacity:1;fill-rule:nonzero;stroke:none"
         id="path20" />
      <path
         d="m 758.832,542.387 -0.09,1.601 c 67.512,151.309 -100.808,325 -413.48,517.762 -483.071,297.74 -180.68,581.33 -103.782,643.75 l -19.5,-14.35 C 114.402,1610.5 -241.438,1315.84 262.863,999.59 494.23,854.367 779.723,693.578 758.832,542.316"
         style="fill:#5d97c9;fill-opacity:1;fill-rule:nonzero;stroke:none"
         id="path22" />
      <path
         d="m 588.699,1213.32 c 510.301,339.39 456.161,390.22 437.011,420.95 l 1.52,0.98 C 1064.42,1600.89 1174.57,1454.2 757.207,1173.04 273.578,847.035 274.977,733.844 526.969,504.453 l 19.679,-36.867 c -107.261,57.848 -589.5894,324.59 42.598,745.184"
         style="fill:#56b146;fill-opacity:1;fill-rule:nonzero;stroke:none"
         id="path24" />
      <path
         d="m 263.598,221.914 c -45.942,0 -79.282,-38.531 -79.282,-87.801 0,-49.2771 33.34,-87.8083 79.282,-87.8083 45.57,0 78.91,38.5312 78.91,87.8083 0,49.27 -33.34,87.801 -78.91,87.801 m 0,-221.91009375 c -77.063,0 -135.973,60.01949375 -135.973,134.10909375 0,74.102 58.91,134.121 135.973,134.121 76.687,0 135.597,-60.019 135.597,-134.121 0,-74.0896 -58.91,-134.10909375 -135.597,-134.10909375"
         style="fill:#585e60;fill-opacity:1;fill-rule:nonzero;stroke:none"
         id="path26" />
      <path
         d="M 608.273,4.44141 V 115.582 H 498.242 V 4.44141 h -52.98 V 263.781 h 52.98 V 160.422 h 110.031 v 103.359 h 52.981 V 4.44141"
         style="fill:#585e60;fill-opacity:1;fill-rule:nonzero;stroke:none"
         id="path28" />
      <path
         d="m 812.828,223.027 c -17.781,0 -33.723,-8.89 -33.723,-25.929 0,-20.012 24.454,-25.563 44.461,-32.61 36.68,-12.59 80.762,-29.633 80.762,-84.1013 0,-56.3086 -52.973,-80.39060625 -98.172,-80.39060625 -40.008,0 -71.129,15.19140625 -99.289,43.33980625 l 35.199,34.4727 c 21.11,-20.3906 37.411,-32.6133 64.461,-32.6133 20.739,0 41.121,10 41.121,32.9805 0,22.2222 -23.71,30.7422 -50.019,40.3832 -33.711,12.589 -71.5,27.41 -71.5,77.058 0,49.27 41.867,72.621 84.84,72.621 33.347,0 59.648,-10.761 85.957,-30.761 l -30.379,-37.789 c -14.449,12.23 -33.719,23.339 -53.719,23.339"
         style="fill:#585e60;fill-opacity:1;fill-rule:nonzero;stroke:none"
         id="path30" />
      <path
         d="M 1157.32,126.699 C 1157.32,45.1992 1126.2,0 1052.11,0 979.492,0 948.359,45.1992 948.359,126.699 v 137.078 h 52.981 V 119.668 c 0,-49.6485 20.01,-73.3594 51.51,-73.3594 31.48,0 51.49,23.7109 51.49,73.3594 v 144.109 h 52.98"
         style="fill:#585e60;fill-opacity:1;fill-rule:nonzero;stroke:none"
         id="path32" />
    </g>
  </g>
</svg>
